<mxfile host="app.diagrams.net" agent="Mozilla/5.0 (Windows NT 10.0; Win64; x64) AppleWebKit/537.36 (KHTML, like Gecko) Chrome/131.0.0.0 Safari/537.36 Edg/131.0.0.0" version="24.8.6">
  <diagram name="Page-1" id="RX6thqs5UdjD7-aVRRg_">
    <mxGraphModel dx="508" dy="478" grid="1" gridSize="10" guides="1" tooltips="1" connect="1" arrows="1" fold="1" page="1" pageScale="1" pageWidth="850" pageHeight="1100" math="0" shadow="0">
      <root>
        <mxCell id="0" />
        <mxCell id="1" parent="0" />
        <mxCell id="NGcY1DxJzezFRYTDo-iz-23" style="edgeStyle=orthogonalEdgeStyle;rounded=0;orthogonalLoop=1;jettySize=auto;html=1;" edge="1" parent="1" source="NGcY1DxJzezFRYTDo-iz-22" target="NGcY1DxJzezFRYTDo-iz-24">
          <mxGeometry relative="1" as="geometry">
            <mxPoint x="100" y="280" as="targetPoint" />
          </mxGeometry>
        </mxCell>
        <mxCell id="NGcY1DxJzezFRYTDo-iz-22" value="bat dau" style="ellipse;whiteSpace=wrap;html=1;" vertex="1" parent="1">
          <mxGeometry x="40" y="140" width="120" height="80" as="geometry" />
        </mxCell>
        <mxCell id="NGcY1DxJzezFRYTDo-iz-25" style="edgeStyle=orthogonalEdgeStyle;rounded=0;orthogonalLoop=1;jettySize=auto;html=1;" edge="1" parent="1" source="NGcY1DxJzezFRYTDo-iz-24" target="NGcY1DxJzezFRYTDo-iz-26">
          <mxGeometry relative="1" as="geometry">
            <mxPoint x="100" y="380" as="targetPoint" />
          </mxGeometry>
        </mxCell>
        <mxCell id="NGcY1DxJzezFRYTDo-iz-24" value="so nguyen" style="rounded=0;whiteSpace=wrap;html=1;" vertex="1" parent="1">
          <mxGeometry x="40" y="250" width="120" height="60" as="geometry" />
        </mxCell>
        <mxCell id="NGcY1DxJzezFRYTDo-iz-27" style="edgeStyle=orthogonalEdgeStyle;rounded=0;orthogonalLoop=1;jettySize=auto;html=1;" edge="1" parent="1" source="NGcY1DxJzezFRYTDo-iz-26" target="NGcY1DxJzezFRYTDo-iz-28">
          <mxGeometry relative="1" as="geometry">
            <mxPoint x="100" y="480" as="targetPoint" />
          </mxGeometry>
        </mxCell>
        <mxCell id="NGcY1DxJzezFRYTDo-iz-31" style="edgeStyle=orthogonalEdgeStyle;rounded=0;orthogonalLoop=1;jettySize=auto;html=1;" edge="1" parent="1" source="NGcY1DxJzezFRYTDo-iz-26" target="NGcY1DxJzezFRYTDo-iz-32">
          <mxGeometry relative="1" as="geometry">
            <mxPoint x="230" y="375" as="targetPoint" />
          </mxGeometry>
        </mxCell>
        <mxCell id="NGcY1DxJzezFRYTDo-iz-26" value="n%2=0" style="rhombus;whiteSpace=wrap;html=1;" vertex="1" parent="1">
          <mxGeometry x="60" y="340" width="80" height="70" as="geometry" />
        </mxCell>
        <mxCell id="NGcY1DxJzezFRYTDo-iz-29" style="edgeStyle=orthogonalEdgeStyle;rounded=0;orthogonalLoop=1;jettySize=auto;html=1;" edge="1" parent="1" source="NGcY1DxJzezFRYTDo-iz-28" target="NGcY1DxJzezFRYTDo-iz-30">
          <mxGeometry relative="1" as="geometry">
            <mxPoint x="100" y="580" as="targetPoint" />
          </mxGeometry>
        </mxCell>
        <mxCell id="NGcY1DxJzezFRYTDo-iz-28" value="chan" style="rounded=0;whiteSpace=wrap;html=1;" vertex="1" parent="1">
          <mxGeometry x="40" y="450" width="120" height="60" as="geometry" />
        </mxCell>
        <mxCell id="NGcY1DxJzezFRYTDo-iz-34" style="edgeStyle=orthogonalEdgeStyle;rounded=0;orthogonalLoop=1;jettySize=auto;html=1;" edge="1" parent="1" source="NGcY1DxJzezFRYTDo-iz-30">
          <mxGeometry relative="1" as="geometry">
            <mxPoint x="230" y="580" as="targetPoint" />
          </mxGeometry>
        </mxCell>
        <mxCell id="NGcY1DxJzezFRYTDo-iz-30" value="ket thuc" style="ellipse;whiteSpace=wrap;html=1;" vertex="1" parent="1">
          <mxGeometry x="40" y="540" width="120" height="80" as="geometry" />
        </mxCell>
        <mxCell id="NGcY1DxJzezFRYTDo-iz-33" style="edgeStyle=orthogonalEdgeStyle;rounded=0;orthogonalLoop=1;jettySize=auto;html=1;" edge="1" parent="1" source="NGcY1DxJzezFRYTDo-iz-32">
          <mxGeometry relative="1" as="geometry">
            <mxPoint x="230" y="580" as="targetPoint" />
          </mxGeometry>
        </mxCell>
        <mxCell id="NGcY1DxJzezFRYTDo-iz-32" value="le" style="rounded=0;whiteSpace=wrap;html=1;" vertex="1" parent="1">
          <mxGeometry x="170" y="345" width="120" height="60" as="geometry" />
        </mxCell>
      </root>
    </mxGraphModel>
  </diagram>
</mxfile>
